<svg width="186" height="56" viewBox="0 0 186 56" fill="none" xmlns="http://www.w3.org/2000/svg">
    <mask id="mask0_42_28" style="mask-type:alpha" maskUnits="userSpaceOnUse" x="17" y="1"
        width="52" height="52">
        <path d="M40.2662 52L18 14.6338V4.51606V2H43H68L61.9739 36.4218L40.2662 52Z" fill="black" />
        <path
            d="M61.9739 36.4218L68 2H43M61.9739 36.4218L40.2662 52L18 14.6338V4.51606V2H43M61.9739 36.4218C50.4182 26.6253 30.4453 6.0257 43 2"
            stroke="black" />
    </mask>
    <g mask="url(#mask0_42_28)">
        <circle cx="43" cy="27" r="25" fill="black" fill-opacity="0.88" />
        <path
            d="M18.4002 52.2998C18.5909 52.0451 18.7805 51.7924 18.969 51.5417L46.0688 24.4483C46.1271 24.6191 46.175 24.8212 46.2097 25.0578C46.2876 25.5901 46.2921 26.2547 46.2244 27.04C46.089 28.6103 45.6711 30.595 45.0499 32.8325C43.8088 37.3032 41.7777 42.7071 39.6701 47.6709L40.5584 48.1247L68.2434 2.25838L67.4618 1.6464L46.1668 22.9363C45.8877 22.7507 45.5595 22.6455 45.1897 22.6272C44.643 22.6003 44.0286 22.7633 43.3546 23.0794C42.0084 23.7109 40.2672 25.0295 38.0623 27.1376C33.6412 31.3646 27.2246 38.8956 18.1908 50.9126C17.9951 51.1731 17.7981 51.4356 17.5998 51.7002L18.4002 52.2998Z"
            fill="white" stroke="white" />
    </g>
    <path
        d="M84.7159 24.4909C84.6307 23.7712 84.285 23.2125 83.679 22.8148C83.0729 22.4171 82.3295 22.2182 81.4489 22.2182C80.8049 22.2182 80.2415 22.3224 79.7585 22.5307C79.2803 22.739 78.9063 23.0255 78.6364 23.3901C78.3712 23.7547 78.2386 24.169 78.2386 24.633C78.2386 25.0212 78.331 25.355 78.5156 25.6344C78.705 25.909 78.9465 26.1387 79.2401 26.3233C79.5336 26.5032 79.8414 26.6524 80.1634 26.7708C80.4853 26.8844 80.7812 26.9767 81.0511 27.0478L82.5284 27.4455C82.9072 27.5449 83.3286 27.6822 83.7926 27.8574C84.2614 28.0326 84.7088 28.2717 85.1349 28.5747C85.5658 28.873 85.9209 29.2566 86.2003 29.7253C86.4796 30.1941 86.6193 30.7693 86.6193 31.4512C86.6193 32.2371 86.4134 32.9474 86.0014 33.5818C85.5942 34.2163 84.9976 34.7206 84.2116 35.0946C83.4304 35.4687 82.4811 35.6557 81.3636 35.6557C80.322 35.6557 79.42 35.4876 78.6577 35.1514C77.9001 34.8153 77.3035 34.3465 76.8679 33.7452C76.437 33.1439 76.1932 32.4455 76.1364 31.65H77.9545C78.0019 32.1993 78.1866 32.6538 78.5085 33.0137C78.8352 33.3688 79.2472 33.6339 79.7443 33.8091C80.2462 33.9796 80.786 34.0648 81.3636 34.0648C82.036 34.0648 82.6397 33.9559 83.1747 33.7381C83.7098 33.5156 84.1335 33.2078 84.446 32.8148C84.7585 32.4171 84.9148 31.9531 84.9148 31.4228C84.9148 30.9398 84.7798 30.5468 84.5099 30.2438C84.2401 29.9407 83.8849 29.6945 83.4446 29.5051C83.0043 29.3157 82.5284 29.15 82.017 29.008L80.2273 28.4966C79.0909 28.1699 78.1913 27.7035 77.5284 27.0975C76.8655 26.4914 76.5341 25.6983 76.5341 24.7182C76.5341 23.9038 76.7543 23.1936 77.1946 22.5875C77.6397 21.9767 78.2363 21.5032 78.9844 21.1671C79.7372 20.8262 80.5777 20.6557 81.5057 20.6557C82.4432 20.6557 83.2765 20.8238 84.0057 21.16C84.7348 21.4914 85.3125 21.946 85.7386 22.5236C86.1695 23.1013 86.3968 23.757 86.4205 24.4909H84.7159ZM93.8619 35.6273C92.8107 35.6273 91.904 35.3953 91.1417 34.9313C90.3841 34.4625 89.7994 33.8091 89.3874 32.971C88.9802 32.1282 88.7766 31.1481 88.7766 30.0307C88.7766 28.9133 88.9802 27.9284 89.3874 27.0762C89.7994 26.2192 90.3723 25.5515 91.1062 25.0733C91.8448 24.5904 92.7066 24.3489 93.6914 24.3489C94.2596 24.3489 94.8207 24.4436 95.3746 24.633C95.9286 24.8224 96.4329 25.1301 96.8874 25.5563C97.342 25.9777 97.7042 26.5364 97.9741 27.2324C98.244 27.9284 98.3789 28.7854 98.3789 29.8034V30.5137H89.9698V29.0648H96.6744C96.6744 28.4493 96.5513 27.9 96.305 27.4171C96.0636 26.9341 95.7179 26.553 95.2681 26.2736C94.823 25.9942 94.2975 25.8546 93.6914 25.8546C93.0238 25.8546 92.4461 26.0203 91.9585 26.3517C91.4755 26.6784 91.1038 27.1046 90.8434 27.6301C90.583 28.1557 90.4528 28.7192 90.4528 29.3205V30.2864C90.4528 31.1103 90.5948 31.8086 90.8789 32.3816C91.1677 32.9497 91.5678 33.383 92.0792 33.6813C92.5906 33.9748 93.1848 34.1216 93.8619 34.1216C94.3022 34.1216 94.6999 34.0601 95.055 33.937C95.4149 33.8091 95.725 33.6197 95.9854 33.3688C96.2459 33.1131 96.4471 32.7959 96.5891 32.4171L98.2085 32.8716C98.038 33.4209 97.7515 33.9038 97.3491 34.3205C96.9466 34.7324 96.4495 35.0544 95.8576 35.2864C95.2657 35.5137 94.6005 35.6273 93.8619 35.6273ZM105.36 35.6273C104.338 35.6273 103.457 35.3858 102.718 34.9029C101.98 34.4199 101.412 33.7547 101.014 32.9071C100.616 32.0596 100.417 31.0913 100.417 30.0023C100.417 28.8943 100.621 27.9166 101.028 27.0691C101.44 26.2168 102.013 25.5515 102.747 25.0733C103.485 24.5904 104.347 24.3489 105.332 24.3489C106.099 24.3489 106.79 24.4909 107.406 24.775C108.021 25.0591 108.526 25.4568 108.919 25.9682C109.312 26.4796 109.556 27.0762 109.65 27.758H107.974C107.846 27.2608 107.562 26.8205 107.122 26.437C106.686 26.0487 106.099 25.8546 105.36 25.8546C104.707 25.8546 104.134 26.025 103.642 26.3659C103.154 26.7021 102.773 27.178 102.498 27.7935C102.228 28.4043 102.093 29.1216 102.093 29.9455C102.093 30.7883 102.226 31.5222 102.491 32.1472C102.761 32.7722 103.14 33.2575 103.627 33.6031C104.12 33.9488 104.698 34.1216 105.36 34.1216C105.796 34.1216 106.191 34.0459 106.547 33.8943C106.902 33.7428 107.202 33.525 107.449 33.2409C107.695 32.9568 107.87 32.6159 107.974 32.2182H109.65C109.556 32.8621 109.321 33.4422 108.947 33.9583C108.578 34.4696 108.088 34.8768 107.477 35.1799C106.871 35.4781 106.165 35.6273 105.36 35.6273ZM118.975 30.9398V24.4909H120.652V35.4H118.975V33.5534H118.862C118.606 34.1074 118.208 34.5785 117.669 34.9668C117.129 35.3503 116.447 35.5421 115.623 35.5421C114.941 35.5421 114.335 35.3929 113.805 35.0946C113.275 34.7916 112.858 34.3371 112.555 33.731C112.252 33.1202 112.1 32.3508 112.1 31.4228V24.4909H113.777V31.3091C113.777 32.1046 113.999 32.739 114.444 33.2125C114.894 33.686 115.467 33.9228 116.163 33.9228C116.58 33.9228 117.003 33.8162 117.434 33.6031C117.87 33.3901 118.234 33.0634 118.528 32.623C118.826 32.1827 118.975 31.6216 118.975 30.9398ZM123.722 35.4V24.4909H125.341V26.1387H125.455C125.653 25.5989 126.013 25.1609 126.534 24.8247C127.055 24.4886 127.642 24.3205 128.295 24.3205C128.419 24.3205 128.572 24.3228 128.757 24.3276C128.942 24.3323 129.081 24.3394 129.176 24.3489V26.0534C129.119 26.0392 128.989 26.0179 128.786 25.9895C128.587 25.9564 128.376 25.9398 128.153 25.9398C127.623 25.9398 127.15 26.0511 126.733 26.2736C126.321 26.4914 125.994 26.7944 125.753 27.1827C125.516 27.5662 125.398 28.0042 125.398 28.4966V35.4H123.722ZM135.405 35.6273C134.354 35.6273 133.447 35.3953 132.685 34.9313C131.927 34.4625 131.342 33.8091 130.93 32.971C130.523 32.1282 130.32 31.1481 130.32 30.0307C130.32 28.9133 130.523 27.9284 130.93 27.0762C131.342 26.2192 131.915 25.5515 132.649 25.0733C133.388 24.5904 134.25 24.3489 135.234 24.3489C135.803 24.3489 136.364 24.4436 136.918 24.633C137.472 24.8224 137.976 25.1301 138.43 25.5563C138.885 25.9777 139.247 26.5364 139.517 27.2324C139.787 27.9284 139.922 28.7854 139.922 29.8034V30.5137H131.513V29.0648H138.217C138.217 28.4493 138.094 27.9 137.848 27.4171C137.607 26.9341 137.261 26.553 136.811 26.2736C136.366 25.9942 135.84 25.8546 135.234 25.8546C134.567 25.8546 133.989 26.0203 133.501 26.3517C133.018 26.6784 132.647 27.1046 132.386 27.6301C132.126 28.1557 131.996 28.7192 131.996 29.3205V30.2864C131.996 31.1103 132.138 31.8086 132.422 32.3816C132.711 32.9497 133.111 33.383 133.622 33.6813C134.134 33.9748 134.728 34.1216 135.405 34.1216C135.845 34.1216 136.243 34.0601 136.598 33.937C136.958 33.8091 137.268 33.6197 137.528 33.3688C137.789 33.1131 137.99 32.7959 138.132 32.4171L139.751 32.8716C139.581 33.4209 139.295 33.9038 138.892 34.3205C138.49 34.7324 137.992 35.0544 137.401 35.2864C136.809 35.5137 136.143 35.6273 135.405 35.6273ZM152.642 25.4C152.486 24.9218 152.28 24.4933 152.024 24.1145C151.773 23.731 151.473 23.4043 151.122 23.1344C150.777 22.8645 150.384 22.6585 149.943 22.5165C149.503 22.3745 149.02 22.3034 148.494 22.3034C147.633 22.3034 146.849 22.526 146.143 22.971C145.438 23.4161 144.877 24.0719 144.46 24.9384C144.044 25.8049 143.835 26.8678 143.835 28.1273C143.835 29.3868 144.046 30.4497 144.467 31.3162C144.889 32.1827 145.459 32.8385 146.179 33.2835C146.899 33.7286 147.708 33.9512 148.608 33.9512C149.441 33.9512 150.175 33.7736 150.81 33.4185C151.449 33.0586 151.946 32.552 152.301 31.8986C152.661 31.2405 152.841 30.4663 152.841 29.5762L153.381 29.6898H149.006V28.1273H154.545V29.6898C154.545 30.8877 154.29 31.9294 153.778 32.8148C153.272 33.7002 152.571 34.3868 151.676 34.8745C150.786 35.3574 149.763 35.5989 148.608 35.5989C147.32 35.5989 146.188 35.2959 145.213 34.6898C144.242 34.0837 143.485 33.222 142.94 32.1046C142.401 30.9871 142.131 29.6614 142.131 28.1273C142.131 26.9767 142.285 25.9422 142.592 25.0236C142.905 24.1003 143.345 23.3143 143.913 22.6656C144.482 22.017 145.154 21.5198 145.93 21.1742C146.707 20.8285 147.562 20.6557 148.494 20.6557C149.261 20.6557 149.976 20.7717 150.639 21.0037C151.307 21.231 151.901 21.5553 152.422 21.9767C152.947 22.3934 153.385 22.8929 153.736 23.4753C154.086 24.053 154.328 24.6945 154.46 25.4H152.642ZM160.545 35.6557C159.854 35.6557 159.226 35.5255 158.663 35.2651C158.1 34.9999 157.652 34.6188 157.321 34.1216C156.989 33.6197 156.824 33.0137 156.824 32.3034C156.824 31.6784 156.947 31.1718 157.193 30.7835C157.439 30.3906 157.768 30.0828 158.18 29.8603C158.592 29.6377 159.047 29.472 159.544 29.3631C160.046 29.2495 160.55 29.1595 161.056 29.0932C161.719 29.008 162.257 28.9441 162.669 28.9014C163.085 28.8541 163.388 28.776 163.578 28.6671C163.772 28.5582 163.869 28.3688 163.869 28.0989V28.0421C163.869 27.3413 163.677 26.7968 163.294 26.4085C162.915 26.0203 162.34 25.8262 161.568 25.8262C160.768 25.8262 160.14 26.0014 159.686 26.3517C159.231 26.7021 158.912 27.0762 158.727 27.4739L157.136 26.9057C157.42 26.2428 157.799 25.7267 158.272 25.3574C158.751 24.9834 159.271 24.7229 159.835 24.5762C160.403 24.4246 160.962 24.3489 161.511 24.3489C161.861 24.3489 162.264 24.3915 162.718 24.4767C163.178 24.5572 163.62 24.7253 164.047 24.981C164.477 25.2367 164.835 25.6226 165.119 26.1387C165.403 26.6548 165.545 27.346 165.545 28.2125V35.4H163.869V33.9228H163.784C163.67 34.1595 163.481 34.4128 163.216 34.6827C162.95 34.9526 162.598 35.1822 162.157 35.3716C161.717 35.561 161.18 35.6557 160.545 35.6557ZM160.801 34.15C161.464 34.15 162.022 34.0198 162.477 33.7594C162.936 33.499 163.282 33.1628 163.514 32.7509C163.751 32.3389 163.869 31.9057 163.869 31.4512V29.9171C163.798 30.0023 163.642 30.0804 163.4 30.1514C163.163 30.2177 162.889 30.2769 162.576 30.329C162.269 30.3764 161.968 30.419 161.674 30.4568C161.386 30.49 161.151 30.5184 160.971 30.5421C160.536 30.5989 160.128 30.6912 159.75 30.8191C159.376 30.9422 159.073 31.1292 158.841 31.3801C158.613 31.6263 158.5 31.9625 158.5 32.3887C158.5 32.971 158.715 33.4114 159.146 33.7097C159.582 34.0032 160.133 34.15 160.801 34.15ZM173.349 24.4909V25.9114H167.695V24.4909H173.349ZM169.343 21.8773H171.019V32.275C171.019 32.7485 171.088 33.1036 171.225 33.3404C171.367 33.5724 171.547 33.7286 171.765 33.8091C171.987 33.8849 172.222 33.9228 172.468 33.9228C172.653 33.9228 172.804 33.9133 172.923 33.8943C173.041 33.8707 173.136 33.8517 173.207 33.8375L173.548 35.3432C173.434 35.3858 173.275 35.4284 173.072 35.471C172.868 35.5184 172.61 35.5421 172.298 35.5421C171.824 35.5421 171.36 35.4403 170.906 35.2367C170.456 35.0331 170.082 34.7229 169.783 34.3063C169.49 33.8896 169.343 33.364 169.343 32.7296V21.8773ZM180.327 35.6273C179.276 35.6273 178.369 35.3953 177.607 34.9313C176.849 34.4625 176.264 33.8091 175.852 32.971C175.445 32.1282 175.241 31.1481 175.241 30.0307C175.241 28.9133 175.445 27.9284 175.852 27.0762C176.264 26.2192 176.837 25.5515 177.571 25.0733C178.31 24.5904 179.171 24.3489 180.156 24.3489C180.724 24.3489 181.286 24.4436 181.839 24.633C182.393 24.8224 182.898 25.1301 183.352 25.5563C183.807 25.9777 184.169 26.5364 184.439 27.2324C184.709 27.9284 184.844 28.7854 184.844 29.8034V30.5137H176.435V29.0648H183.139C183.139 28.4493 183.016 27.9 182.77 27.4171C182.528 26.9341 182.183 26.553 181.733 26.2736C181.288 25.9942 180.762 25.8546 180.156 25.8546C179.489 25.8546 178.911 26.0203 178.423 26.3517C177.94 26.6784 177.569 27.1046 177.308 27.6301C177.048 28.1557 176.918 28.7192 176.918 29.3205V30.2864C176.918 31.1103 177.06 31.8086 177.344 32.3816C177.633 32.9497 178.033 33.383 178.544 33.6813C179.055 33.9748 179.65 34.1216 180.327 34.1216C180.767 34.1216 181.165 34.0601 181.52 33.937C181.88 33.8091 182.19 33.6197 182.45 33.3688C182.711 33.1131 182.912 32.7959 183.054 32.4171L184.673 32.8716C184.503 33.4209 184.216 33.9038 183.814 34.3205C183.411 34.7324 182.914 35.0544 182.322 35.2864C181.731 35.5137 181.065 35.6273 180.327 35.6273Z"
        fill="white" />
</svg>